<?xml version="1.0" standalone="no"?>
<!DOCTYPE svg PUBLIC "-//W3C//DTD SVG 20010904//EN"
 "http://www.w3.org/TR/2001/REC-SVG-20010904/DTD/svg10.dtd">
<svg version="1.0" xmlns="http://www.w3.org/2000/svg"
 width="260.000000pt" height="260.000000pt" viewBox="0 0 260.000000 260.000000"
 preserveAspectRatio="xMidYMid meet">
<metadata>
Created by potrace 1.11, written by Peter Selinger 2001-2013
</metadata>
<g transform="translate(0.000000,260.000000) scale(0.100000,-0.100000)"
fill="#000000" stroke="none">
<path d="M1253 2358 c-18 -35 -49 -92 -69 -128 -182 -325 -265 -476 -362 -656
-82 -152 -205 -373 -236 -424 -27 -43 -38 -70 -28 -70 4 0 34 28 67 61 151
156 611 411 977 543 87 32 85 24 28 126 -20 36 -60 108 -88 160 -165 308 -240
444 -249 447 -5 2 -23 -25 -40 -59z"/>
<path d="M1074 1356 c-176 -98 -474 -311 -474 -338 0 -11 254 -134 400 -193
96 -40 194 -71 307 -97 40 -9 48 -6 200 70 87 43 182 93 212 109 81 45 250
166 251 179 0 6 -25 13 -58 16 -127 12 -469 135 -687 247 -44 23 -82 41 -85
41 -3 0 -32 -15 -66 -34z"/>
<path d="M2005 1009 c-108 -110 -450 -290 -720 -378 -71 -24 -148 -49 -170
-56 -22 -7 -56 -17 -75 -20 -19 -4 -73 -18 -120 -32 -160 -46 -434 -81 -613
-79 -73 1 -87 -2 -87 -15 0 -24 38 -54 125 -97 128 -64 287 -103 535 -131 116
-13 442 -31 490 -27 19 2 91 7 159 11 69 4 132 8 140 10 9 1 45 6 81 9 201 22
394 72 518 135 53 27 108 75 115 100 3 13 -23 68 -72 153 -42 73 -117 206
-166 295 -50 90 -92 163 -95 163 -3 0 -24 -18 -45 -41z"/>
</g>
</svg>
